<svg width="12" height="12" viewBox="0 0 12 12" fill="none" xmlns="http://www.w3.org/2000/svg">
<path d="M11.0977 0.344222C11.4655 0.0804138 11.9196 0.534533 11.6558 0.902387L8.16718 5.76693C8.06725 5.90628 8.06725 6.09381 8.16718 6.23316L11.6558 11.0977C11.9196 11.4656 11.4655 11.9197 11.0977 11.6559L6.23311 8.16722C6.09377 8.06729 5.90623 8.06729 5.76689 8.16722L0.902341 11.6559C0.534488 11.9197 0.0803687 11.4656 0.344178 11.0977L3.83282 6.23316C3.93275 6.09382 3.93275 5.90628 3.83282 5.76693L0.344177 0.902387C0.0803683 0.534533 0.534488 0.0804141 0.902342 0.344223L5.76689 3.83287C5.90623 3.9328 6.09377 3.9328 6.23311 3.83287L11.0977 0.344222Z" fill="#028036"/>
</svg>
