<svg width="56" height="57" viewBox="0 0 56 57" fill="none" xmlns="http://www.w3.org/2000/svg">
<rect y="0.5" width="56" height="56" rx="28" fill="#F6E2FF"/>
<path d="M18.4644 25.8438C18.2159 25.8438 17.9891 25.6423 18.0005 25.379C18.0674 23.8369 18.2549 22.833 18.7801 22.0388C19.0823 21.582 19.4577 21.1846 19.8893 20.8647C21.0558 20 22.7014 20 25.9927 20H30.0074C33.2987 20 34.9443 20 36.1109 20.8647C36.5424 21.1846 36.9178 21.582 37.22 22.0388C37.7452 22.8329 37.9327 23.8367 37.9996 25.3784C38.0111 25.6421 37.784 25.8438 37.5352 25.8438C36.1494 25.8438 35.026 27.033 35.026 28.5C35.026 29.967 36.1494 31.1562 37.5352 31.1562C37.784 31.1562 38.0111 31.3579 37.9996 31.6216C37.9327 33.1634 37.7452 34.1671 37.22 34.9612C36.9178 35.418 36.5424 35.8154 36.1109 36.1353C34.9443 37 33.2987 37 30.0074 37H25.9927C22.7014 37 21.0558 37 19.8893 36.1353C19.4577 35.8154 19.0823 35.418 18.7801 34.9612C18.2549 34.167 18.0674 33.1631 18.0005 31.6211C17.9891 31.3577 18.2159 31.1562 18.4644 31.1562C19.8502 31.1562 20.9736 29.967 20.9736 28.5C20.9736 27.033 19.8502 25.8438 18.4644 25.8438Z" stroke="#AA16EF" stroke-width="1.5" stroke-linejoin="round"/>
<path d="M25.5001 31L30.5001 26" stroke="#AA16EF" stroke-width="1.5" stroke-linecap="round" stroke-linejoin="round"/>
<path d="M25.5001 26H25.5113M30.4888 31H30.5001" stroke="#AA16EF" stroke-width="2" stroke-linecap="round" stroke-linejoin="round"/>
</svg>
