<svg width="22" height="22" viewBox="0 0 22 22" fill="none" xmlns="http://www.w3.org/2000/svg">
<path d="M12.1136 0.167715C12.9042 0.164681 13.6947 0.172626 14.4851 0.191548L14.6952 0.199131C14.9379 0.207798 15.1773 0.218631 15.4666 0.231631C16.6192 0.285798 17.4057 0.467798 18.0958 0.735382C18.8108 1.01055 19.4131 1.38321 20.0155 1.98555C20.5662 2.52679 20.9925 3.18149 21.2646 3.90413C21.5321 4.59421 21.7141 5.3818 21.7683 6.53446C21.7813 6.82263 21.7921 7.06313 21.8008 7.3058L21.8073 7.51597C21.8266 8.30592 21.8349 9.09611 21.8322 9.8863L21.8333 10.6945V12.1136C21.836 12.9042 21.8277 13.6947 21.8084 14.485L21.8019 14.6952C21.7932 14.9379 21.7824 15.1773 21.7694 15.4665C21.7152 16.6192 21.5311 17.4057 21.2646 18.0958C20.9933 18.8192 20.567 19.4744 20.0155 20.0155C19.4738 20.5661 18.8187 20.9924 18.0958 21.2645C17.4057 21.5321 16.6192 21.7141 15.4666 21.7683C15.1773 21.7813 14.9379 21.7921 14.6952 21.8008L14.4851 21.8073C13.6947 21.8266 12.9042 21.8349 12.1136 21.8322L11.3055 21.8333H9.88739C9.09684 21.836 8.30629 21.8277 7.51597 21.8084L7.30581 21.8019C7.04864 21.7926 6.79152 21.7817 6.53447 21.7694C5.38181 21.7152 4.59531 21.531 3.90414 21.2645C3.18121 20.993 2.5264 20.5667 1.98556 20.0155C1.43419 19.4741 1.00755 18.819 0.735391 18.0958C0.467807 17.4057 0.285807 16.6192 0.231641 15.4665C0.219575 15.2095 0.208742 14.9524 0.199141 14.6952L0.193724 14.485C0.173751 13.6947 0.164723 12.9042 0.166641 12.1136V9.8863C0.163617 9.09612 0.171562 8.30593 0.190474 7.51597L0.198057 7.3058C0.206724 7.06313 0.217557 6.82263 0.230557 6.53446C0.284724 5.38071 0.466724 4.5953 0.734307 3.90413C1.00663 3.18114 1.4341 2.52661 1.98664 1.98663C2.52711 1.43495 3.18152 1.00792 3.90414 0.735382C4.59531 0.467798 5.38072 0.285798 6.53447 0.231631L7.30581 0.199131L7.51597 0.193715C8.30592 0.173752 9.09611 0.164723 9.88631 0.166632L12.1136 0.167715ZM11 5.58438C10.2823 5.57423 9.56971 5.70682 8.9037 5.97445C8.23769 6.24209 7.63151 6.63942 7.12039 7.14336C6.60927 7.6473 6.20341 8.2478 5.92639 8.90996C5.64936 9.57212 5.50671 10.2827 5.50671 11.0005C5.50671 11.7183 5.64936 12.4289 5.92639 13.0911C6.20341 13.7532 6.60927 14.3537 7.12039 14.8577C7.63151 15.3616 8.23769 15.7589 8.9037 16.0266C9.56971 16.2942 10.2823 16.4268 11 16.4166C12.4366 16.4166 13.8143 15.8459 14.8301 14.8301C15.846 13.8143 16.4166 12.4366 16.4166 11C16.4166 9.56338 15.846 8.18563 14.8301 7.1698C13.8143 6.15398 12.4366 5.58438 11 5.58438ZM11 7.75105C11.4317 7.74309 11.8607 7.82125 12.2618 7.98094C12.663 8.14063 13.0283 8.37867 13.3365 8.68114C13.6446 8.98361 13.8894 9.34445 14.0565 9.74259C14.2237 10.1407 14.3098 10.5682 14.3098 11C14.3099 11.4317 14.2239 11.8592 14.057 12.2574C13.89 12.6556 13.6453 13.0165 13.3373 13.3191C13.0292 13.6217 12.664 13.8598 12.2628 14.0197C11.8617 14.1795 11.4328 14.2578 11.0011 14.25C10.1391 14.25 9.31245 13.9076 8.70296 13.2981C8.09347 12.6886 7.75106 11.8619 7.75106 11C7.75106 10.138 8.09347 9.31136 8.70296 8.70187C9.31245 8.09237 10.1391 7.74997 11.0011 7.74997L11 7.75105ZM16.6875 3.95938C16.338 3.97337 16.0075 4.12204 15.7651 4.37427C15.5228 4.62649 15.3875 4.96269 15.3875 5.31246C15.3875 5.66224 15.5228 5.99844 15.7651 6.25066C16.0075 6.50289 16.338 6.65156 16.6875 6.66555C17.0466 6.66555 17.3911 6.52288 17.645 6.26892C17.899 6.01497 18.0416 5.67053 18.0416 5.31138C18.0416 4.95223 17.899 4.6078 17.645 4.35384C17.3911 4.09989 17.0466 3.95722 16.6875 3.95722V3.95938Z" fill="#017F36"/>
</svg>
