<svg width="48" height="48" viewBox="0 0 48 48" fill="none" xmlns="http://www.w3.org/2000/svg">
<path d="M24 7.5C23.0054 7.5 22.0516 7.89509 21.3484 8.59835C20.6451 9.30161 20.25 10.2554 20.25 11.25C20.25 12.2446 20.6451 13.1984 21.3484 13.9017C22.0516 14.6049 23.0054 15 24 15C24.9946 15 25.9484 14.6049 26.6516 13.9017C27.3549 13.1984 27.75 12.2446 27.75 11.25C27.75 10.2554 27.3549 9.30161 26.6516 8.59835C25.9484 7.89509 24.9946 7.5 24 7.5ZM17.25 11.25C17.25 9.45979 17.9612 7.7429 19.227 6.47703C20.4929 5.21116 22.2098 4.5 24 4.5C25.7902 4.5 27.5071 5.21116 28.773 6.47703C30.0388 7.7429 30.75 9.45979 30.75 11.25C30.75 13.0402 30.0388 14.7571 28.773 16.023C27.5071 17.2888 25.7902 18 24 18C22.2098 18 20.4929 17.2888 19.227 16.023C17.9612 14.7571 17.25 13.0402 17.25 11.25ZM9 12C8.20435 12 7.44129 12.3161 6.87868 12.8787C6.31607 13.4413 6 14.2044 6 15C6 15.7956 6.31607 16.5587 6.87868 17.1213C7.44129 17.6839 8.20435 18 9 18C9.79565 18 10.5587 17.6839 11.1213 17.1213C11.6839 16.5587 12 15.7956 12 15C12 14.2044 11.6839 13.4413 11.1213 12.8787C10.5587 12.3161 9.79565 12 9 12ZM3 15C3 13.4087 3.63214 11.8826 4.75736 10.7574C5.88258 9.63214 7.4087 9 9 9C10.5913 9 12.1174 9.63214 13.2426 10.7574C14.3679 11.8826 15 13.4087 15 15C15 16.5913 14.3679 18.1174 13.2426 19.2426C12.1174 20.3679 10.5913 21 9 21C7.4087 21 5.88258 20.3679 4.75736 19.2426C3.63214 18.1174 3 16.5913 3 15ZM36 15C36 14.2044 36.3161 13.4413 36.8787 12.8787C37.4413 12.3161 38.2043 12 39 12C39.7957 12 40.5587 12.3161 41.1213 12.8787C41.6839 13.4413 42 14.2044 42 15C42 15.7956 41.6839 16.5587 41.1213 17.1213C40.5587 17.6839 39.7957 18 39 18C38.2043 18 37.4413 17.6839 36.8787 17.1213C36.3161 16.5587 36 15.7956 36 15ZM39 9C37.4087 9 35.8826 9.63214 34.7574 10.7574C33.6321 11.8826 33 13.4087 33 15C33 16.5913 33.6321 18.1174 34.7574 19.2426C35.8826 20.3679 37.4087 21 39 21C40.5913 21 42.1174 20.3679 43.2426 19.2426C44.3679 18.1174 45 16.5913 45 15C45 13.4087 44.3679 11.8826 43.2426 10.7574C42.1174 9.63214 40.5913 9 39 9ZM12.75 24.75C12.75 24.416 12.7765 24.0905 12.8295 23.7735L5.7795 25.662C4.81899 25.9197 4.00016 26.5483 3.50311 27.4096C3.00606 28.271 2.87149 29.2945 3.129 30.255L4.488 35.325C4.81603 36.55 5.39924 37.6918 6.1994 38.6757C6.99956 39.6595 7.99861 40.4631 9.13105 41.0339C10.2635 41.6046 11.5038 41.9296 12.7706 41.9876C14.0374 42.0455 15.3022 41.835 16.482 41.37C15.6711 40.6421 14.9703 39.8004 14.4015 38.871C12.9015 39.1825 11.3391 38.9084 10.0347 38.1049C8.73023 37.3014 7.78258 36.0293 7.386 34.5495L6.027 29.4795C6.00135 29.3844 5.99471 29.2851 6.00744 29.1874C6.02018 29.0897 6.05204 28.9954 6.10121 28.91C6.15039 28.8246 6.21591 28.7498 6.29403 28.6897C6.37215 28.6297 6.46134 28.5856 6.5565 28.56L12.75 26.901V24.75ZM32.4855 41.6895C32.1567 41.6019 31.8332 41.4957 31.5165 41.3715C32.3279 40.6438 33.0292 39.802 33.5985 38.8725C35.0983 39.1831 36.6601 38.9084 37.9639 38.1046C39.2677 37.3009 40.2147 36.029 40.611 34.5495L41.9685 29.478C42.0198 29.2861 41.9929 29.0816 41.8936 28.9095C41.7944 28.7374 41.6309 28.6117 41.439 28.56L35.25 26.901V24.75C35.25 24.418 35.2235 24.093 35.1705 23.775L42.216 25.662C43.1765 25.9197 43.9953 26.5483 44.4924 27.4096C44.9894 28.271 45.124 29.2945 44.8665 30.255L43.5075 35.325C42.8898 37.6306 41.3816 39.5963 39.3146 40.7899C37.2476 41.9835 34.7911 42.3071 32.4855 41.6895ZM18.75 21C17.7554 21 16.8016 21.3951 16.0983 22.0984C15.3951 22.8016 15 23.7554 15 24.75V33C15 35.3869 15.9482 37.6761 17.636 39.364C19.3239 41.0518 21.6131 42 24 42C26.3869 42 28.6761 41.0518 30.364 39.364C32.0518 37.6761 33 35.3869 33 33V24.75C33 23.7554 32.6049 22.8016 31.9016 22.0984C31.1984 21.3951 30.2446 21 29.25 21H18.75ZM18 24.75C18 24.5511 18.079 24.3603 18.2197 24.2197C18.3603 24.079 18.5511 24 18.75 24H29.25C29.4489 24 29.6397 24.079 29.7803 24.2197C29.921 24.3603 30 24.5511 30 24.75V33C30 34.5913 29.3679 36.1174 28.2426 37.2426C27.1174 38.3679 25.5913 39 24 39C22.4087 39 20.8826 38.3679 19.7574 37.2426C18.6321 36.1174 18 34.5913 18 33V24.75Z" fill="#002B6B"/>
</svg>
